HIERARCHY
ROOT mixamorig:Hips
{
	OFFSET 0.370399 90.456322 1.091393
	CHANNELS 6 Xposition Yposition Zposition Xrotation Yrotation Zrotation
	JOINT mixamorig:Spine
	{
		OFFSET 0.947968 9.911926 2.130122
		CHANNELS 3 Xrotation Yrotation Zrotation
		JOINT mixamorig:Spine1
		{
			OFFSET -0.415251 9.747147 2.738495
			CHANNELS 3 Xrotation Yrotation Zrotation
			JOINT mixamorig:Spine2
			{
				OFFSET -0.454972 8.886848 2.348015
				CHANNELS 3 Xrotation Yrotation Zrotation
				JOINT mixamorig:Neck
				{
					OFFSET -0.903543 15.841858 5.700592
					CHANNELS 3 Xrotation Yrotation Zrotation
					JOINT mixamorig:Head
					{
						OFFSET -0.498206 8.037384 5.522280
						CHANNELS 3 Xrotation Yrotation Zrotation
						JOINT mixamorig:HeadTop_End
						{
							OFFSET 0.161545 17.243042 5.168661
							CHANNELS 3 Xrotation Yrotation Zrotation
							End Site
							{
								OFFSET 0.149449 13.644638 2.022297
							}
						}
						JOINT mixamorig:LeftEye
						{
							OFFSET 3.023634 4.941757 10.154486
							CHANNELS 3 Xrotation Yrotation Zrotation
							End Site
							{
								OFFSET 0.149449 13.644638 2.022297
							}
						}
						JOINT mixamorig:RightEye
						{
							OFFSET -3.110752 5.018478 10.090263
							CHANNELS 3 Xrotation Yrotation Zrotation
							End Site
							{
								OFFSET 0.149449 13.644638 2.022297
							}
						}
					}
				}
				JOINT mixamorig:LeftShoulder
				{
					OFFSET 3.973635 11.077835 3.016917
					CHANNELS 3 Xrotation Yrotation Zrotation
					JOINT mixamorig:LeftArm
					{
						OFFSET 10.536211 -1.150406 -2.263068
						CHANNELS 3 Xrotation Yrotation Zrotation
						JOINT mixamorig:LeftForeArm
						{
							OFFSET 12.175444 -20.023346 -15.032388
							CHANNELS 3 Xrotation Yrotation Zrotation
							JOINT mixamorig:LeftHand
							{
								OFFSET -5.498022 -18.745361 20.515965
								CHANNELS 3 Xrotation Yrotation Zrotation
								JOINT mixamorig:LeftHandThumb1
								{
									OFFSET -2.773180 -0.033112 2.840052
									CHANNELS 3 Xrotation Yrotation Zrotation
									JOINT mixamorig:LeftHandThumb2
									{
										OFFSET -2.753510 -1.520790 2.737011
										CHANNELS 3 Xrotation Yrotation Zrotation
										JOINT mixamorig:LeftHandThumb3
										{
											OFFSET -1.147897 -2.134285 2.419596
											CHANNELS 3 Xrotation Yrotation Zrotation
											JOINT mixamorig:LeftHandThumb4
											{
												OFFSET -1.617557 -0.176559 1.928680
												CHANNELS 3 Xrotation Yrotation Zrotation
												End Site
												{
													OFFSET 1.742390 1.818962 0.151358
												}
											}
										}
									}
								}
								JOINT mixamorig:LeftHandIndex1
								{
									OFFSET -1.888548 -3.671608 8.444372
									CHANNELS 3 Xrotation Yrotation Zrotation
									JOINT mixamorig:LeftHandIndex2
									{
										OFFSET -2.850023 -1.825806 -1.435156
										CHANNELS 3 Xrotation Yrotation Zrotation
										JOINT mixamorig:LeftHandIndex3
										{
											OFFSET -0.549032 1.122238 -2.598356
											CHANNELS 3 Xrotation Yrotation Zrotation
											JOINT mixamorig:LeftHandIndex4
											{
												OFFSET 1.767797 1.605965 0.144350
												CHANNELS 3 Xrotation Yrotation Zrotation
												End Site
												{
													OFFSET -0.418016 0.663330 -2.260599
												}
											}
										}
									}
								}
								JOINT mixamorig:LeftHandMiddle1
								{
									OFFSET -0.350178 -5.363647 7.873655
									CHANNELS 3 Xrotation Yrotation Zrotation
									JOINT mixamorig:LeftHandMiddle2
									{
										OFFSET -2.993784 -2.023262 -0.787651
										CHANNELS 3 Xrotation Yrotation Zrotation
										JOINT mixamorig:LeftHandMiddle3
										{
											OFFSET -0.830025 1.140663 -2.591858
											CHANNELS 3 Xrotation Yrotation Zrotation
											JOINT mixamorig:LeftHandMiddle4
											{
												OFFSET 1.542412 2.113625 -1.088375
												CHANNELS 3 Xrotation Yrotation Zrotation
												End Site
												{
													OFFSET -1.557194 -0.082138 -2.366306
												}
											}
										}
									}
								}
								JOINT mixamorig:LeftHandRing1
								{
									OFFSET 0.537535 -6.503212 6.617542
									CHANNELS 3 Xrotation Yrotation Zrotation
									JOINT mixamorig:LeftHandRing2
									{
										OFFSET -2.598215 -1.710037 -0.522270
										CHANNELS 3 Xrotation Yrotation Zrotation
										JOINT mixamorig:LeftHandRing3
										{
											OFFSET -0.396503 1.459953 -2.518219
											CHANNELS 3 Xrotation Yrotation Zrotation
											JOINT mixamorig:LeftHandRing4
											{
												OFFSET 1.939833 1.774025 -0.314743
												CHANNELS 3 Xrotation Yrotation Zrotation
												End Site
												{
													OFFSET -0.918915 0.576324 -2.415088
												}
											}
										}
									}
								}
								JOINT mixamorig:LeftHandPinky1
								{
									OFFSET 1.134647 -7.516533 4.710684
									CHANNELS 3 Xrotation Yrotation Zrotation
									JOINT mixamorig:LeftHandPinky2
									{
										OFFSET -2.759083 -2.181595 -0.766876
										CHANNELS 3 Xrotation Yrotation Zrotation
										JOINT mixamorig:LeftHandPinky3
										{
											OFFSET -0.807619 0.794685 -1.784946
											CHANNELS 3 Xrotation Yrotation Zrotation
											JOINT mixamorig:LeftHandPinky4
											{
												OFFSET 1.097881 1.575386 -0.464920
												CHANNELS 3 Xrotation Yrotation Zrotation
												End Site
												{
													OFFSET -0.987345 0.186043 -1.701155
												}
											}
										}
									}
								}
							}
						}
					}
				}
				JOINT mixamorig:RightShoulder
				{
					OFFSET -5.153033 10.652924 2.751717
					CHANNELS 3 Xrotation Yrotation Zrotation
					JOINT mixamorig:RightArm
					{
						OFFSET -10.237621 -2.138702 -2.842937
						CHANNELS 3 Xrotation Yrotation Zrotation
						JOINT mixamorig:RightForeArm
						{
							OFFSET -12.044677 -24.921288 3.000721
							CHANNELS 3 Xrotation Yrotation Zrotation
							JOINT mixamorig:RightHand
							{
								OFFSET 11.828462 -2.481667 25.621273
								CHANNELS 3 Xrotation Yrotation Zrotation
								JOINT mixamorig:RightHandPinky1
								{
									OFFSET 1.454603 -1.813713 8.634342
									CHANNELS 3 Xrotation Yrotation Zrotation
									JOINT mixamorig:RightHandPinky2
									{
										OFFSET 3.115809 -1.763168 -0.378197
										CHANNELS 3 Xrotation Yrotation Zrotation
										JOINT mixamorig:RightHandPinky3
										{
											OFFSET -0.043979 -0.706383 -1.992207
											CHANNELS 3 Xrotation Yrotation Zrotation
											JOINT mixamorig:RightHandPinky4
											{
												OFFSET -1.232790 0.078362 -1.541901
												CHANNELS 3 Xrotation Yrotation Zrotation
												End Site
												{
													OFFSET 1.201897 -1.189766 -1.021420
												}
											}
										}
									}
								}
								JOINT mixamorig:RightHandRing1
								{
									OFFSET 2.295358 0.230125 9.001907
									CHANNELS 3 Xrotation Yrotation Zrotation
									JOINT mixamorig:RightHandRing2
									{
										OFFSET 2.837056 -1.375023 -0.090279
										CHANNELS 3 Xrotation Yrotation Zrotation
										JOINT mixamorig:RightHandRing3
										{
											OFFSET 0.414824 -1.183304 -2.656643
											CHANNELS 3 Xrotation Yrotation Zrotation
											JOINT mixamorig:RightHandRing4
											{
												OFFSET -2.044207 0.355553 -1.644413
												CHANNELS 3 Xrotation Yrotation Zrotation
												End Site
												{
													OFFSET 1.205153 -1.496140 -1.821640
												}
											}
										}
									}
								}
								JOINT mixamorig:RightHandMiddle1
								{
									OFFSET 3.232103 1.883080 8.767902
									CHANNELS 3 Xrotation Yrotation Zrotation
									JOINT mixamorig:RightHandMiddle2
									{
										OFFSET 3.336446 -1.585846 0.172863
										CHANNELS 3 Xrotation Yrotation Zrotation
										JOINT mixamorig:RightHandMiddle3
										{
											OFFSET 0.216553 -1.153450 -2.707474
											CHANNELS 3 Xrotation Yrotation Zrotation
											JOINT mixamorig:RightHandMiddle4
											{
												OFFSET -2.381354 0.639885 -1.396656
												CHANNELS 3 Xrotation Yrotation Zrotation
												End Site
												{
													OFFSET 0.874144 -1.554253 -2.202538
												}
											}
										}
									}
								}
								JOINT mixamorig:RightHandIndex1
								{
									OFFSET 4.519993 3.400948 7.505959
									CHANNELS 3 Xrotation Yrotation Zrotation
									JOINT mixamorig:RightHandIndex2
									{
										OFFSET 3.351607 -1.490944 0.244389
										CHANNELS 3 Xrotation Yrotation Zrotation
										JOINT mixamorig:RightHandIndex3
										{
											OFFSET 0.431644 -1.267181 -2.553467
											CHANNELS 3 Xrotation Yrotation Zrotation
											JOINT mixamorig:RightHandIndex4
											{
												OFFSET -1.594398 0.015610 -1.783993
												CHANNELS 3 Xrotation Yrotation Zrotation
												End Site
												{
													OFFSET 1.420406 -1.436630 -1.282021
												}
											}
										}
									}
								}
								JOINT mixamorig:RightHandThumb1
								{
									OFFSET 3.330817 1.885315 1.046989
									CHANNELS 3 Xrotation Yrotation Zrotation
									JOINT mixamorig:RightHandThumb2
									{
										OFFSET 3.346648 0.934334 2.304951
										CHANNELS 3 Xrotation Yrotation Zrotation
										JOINT mixamorig:RightHandThumb3
										{
											OFFSET 2.009879 0.891518 2.625317
											CHANNELS 3 Xrotation Yrotation Zrotation
											JOINT mixamorig:RightHandThumb4
											{
												OFFSET 1.230711 1.616867 1.496181
												CHANNELS 3 Xrotation Yrotation Zrotation
												End Site
												{
													OFFSET -2.191244 0.798378 -0.963600
												}
											}
										}
									}
								}
							}
						}
					}
				}
			}
		}
	}
	JOINT mixamorig:LeftUpLeg
	{
		OFFSET 7.567883 -7.055206 -2.909209
		CHANNELS 3 Xrotation Yrotation Zrotation
		JOINT mixamorig:LeftLeg
		{
			OFFSET 3.242708 -34.874111 27.241600
			CHANNELS 3 Xrotation Yrotation Zrotation
			JOINT mixamorig:LeftFoot
			{
				OFFSET -3.805744 3.573410 -44.220825
				CHANNELS 3 Xrotation Yrotation Zrotation
				JOINT mixamorig:LeftToeBase
				{
					OFFSET 0.445134 -11.120712 -8.187738
					CHANNELS 3 Xrotation Yrotation Zrotation
					JOINT mixamorig:LeftToe_End
					{
						OFFSET 1.257342 -9.181902 0.441473
						CHANNELS 3 Xrotation Yrotation Zrotation
						End Site
						{
							OFFSET 1.059506 0.588068 9.198627
						}
					}
				}
			}
		}
	}
	JOINT mixamorig:RightUpLeg
	{
		OFFSET -8.773689 -5.498230 -2.881671
		CHANNELS 3 Xrotation Yrotation Zrotation
		JOINT mixamorig:RightLeg
		{
			OFFSET 0.937791 -39.797066 19.599424
			CHANNELS 3 Xrotation Yrotation Zrotation
			JOINT mixamorig:RightFoot
			{
				OFFSET 7.092713 -36.225376 -24.902599
				CHANNELS 3 Xrotation Yrotation Zrotation
				JOINT mixamorig:RightToeBase
				{
					OFFSET -1.077571 -8.611105 10.751509
					CHANNELS 3 Xrotation Yrotation Zrotation
					JOINT mixamorig:RightToe_End
					{
						OFFSET -0.775126 -0.135539 9.244675
						CHANNELS 3 Xrotation Yrotation Zrotation
						End Site
						{
							OFFSET 0.180654 9.275124 0.150431
						}
					}
				}
			}
		}
	}
}
MOTION
Frames: 6
Frame Time: 0.041667
-1.792931 90.238800 162.175446 -0.852836 4.121664 5.488000 -1.334218 -5.741526 -10.373626 -1.110654 -2.340020 -2.534167 -1.108769 -2.216462 -2.623111 0.863410 1.134229 1.288199 3.197949 4.800471 6.401706 0.000000 0.000000 0.000000 0.000000 0.000000 0.000000 0.000000 0.000000 -0.000000 0.215750 -3.760374 -4.476102 -33.878817 10.017288 0.151257 4.721239 1.239420 2.268173 5.814536 -1.056288 -3.209349 0.000001 -0.000003 -0.000002 14.895205 9.361054 3.808550 0.286804 6.121581 4.163513 0.000018 -0.000001 0.000016 -6.459809 6.072921 0.614847 0.347758 -0.363589 -0.229283 0.347772 -0.363609 -0.229285 0.000004 0.000005 0.000003 -2.768814 3.287421 1.717894 0.309613 -0.359808 -0.256500 0.290632 -0.337616 -0.240755 0.000003 0.000003 0.000002 -1.451002 1.694980 1.025393 0.320091 -0.402133 -0.282107 0.312582 -0.392675 -0.275513 0.000000 -0.000002 0.000002 -5.642777 3.944875 -3.357473 0.274453 -0.263499 -0.240840 0.250900 -0.240788 -0.220199 0.000007 -0.000008 0.000003 0.040521 -1.746520 -3.119863 18.837279 -0.620198 5.234289 8.023142 -4.739233 -3.885468 8.330408 4.805929 -10.890210 -2.264446 -3.470696 0.507718 -1.154225 -2.251414 0.798676 -1.136098 -2.215537 0.786346 0.000001 0.000011 0.000005 -1.354847 -2.086479 0.497782 -2.144764 -4.708237 1.650678 -2.140066 -4.697443 1.647161 -0.000003 0.000006 0.000002 -1.316718 -2.158504 -0.079036 -1.699702 -3.531162 1.304960 -1.684386 -3.498461 1.293386 0.000008 -0.000002 -0.000013 0.164431 -0.835497 -1.167657 -1.681037 -3.656152 1.458595 -1.681067 -3.656161 1.458566 0.000001 -0.000003 0.000002 0.000007 -0.000006 0.000007 12.637130 5.767350 -3.701507 7.908483 7.673971 -2.997805 -0.000003 0.000007 -0.000006 17.436582 -6.378318 -9.466175 -70.920675 -4.727051 0.477725 -33.449362 -8.338567 -4.850192 0.320555 0.041878 -0.039717 0.000000 -0.000002 0.000001 -23.814496 4.929166 -13.721198 56.169874 9.725051 4.755848 30.111015 2.349822 9.187740 -11.281540 0.326064 -0.913511 0.000002 -0.000001 -0.000001 
-1.640911 92.157982 177.197342 -0.549806 5.377642 2.695172 -1.385832 -11.107553 -8.766844 -0.898967 -4.869725 -2.962986 -0.911276 -4.696547 -3.216112 1.272874 1.267690 3.122984 2.762126 12.796524 6.288637 -0.000003 0.000000 0.000000 -0.000003 0.000001 0.000000 0.000004 0.000000 0.000000 0.028976 -6.877463 -1.487931 -37.696173 12.057760 -0.013548 -1.686873 -0.394055 -0.828599 2.145628 -0.641626 -9.068816 -0.000003 0.000001 -0.000003 16.136517 12.415609 -0.107479 1.961505 7.883662 4.681871 0.000017 0.000003 0.000014 -7.150293 6.642435 0.469032 0.096779 -0.100901 -0.063931 0.096804 -0.100881 -0.063958 -0.000006 0.000005 -0.000000 -2.926908 3.572826 1.538307 0.266178 -0.309133 -0.220532 0.235815 -0.273724 -0.195386 0.000003 0.000003 0.000003 -1.969794 2.361670 1.147241 0.371832 -0.467544 -0.327668 0.351063 -0.441274 -0.309387 -0.000000 0.000001 -0.000003 -6.725661 5.099013 -2.935077 0.311688 -0.299415 -0.273496 0.267371 -0.256674 -0.234641 0.000007 -0.000008 0.000001 0.077425 -2.305382 -3.237444 31.810305 0.805990 0.138556 -2.721614 1.440599 1.423230 11.697712 1.257691 -14.362419 -1.847783 -2.865267 0.110957 -0.832498 -1.616285 0.578464 -0.811375 -1.574804 0.563939 0.000003 -0.000008 -0.000001 -0.550823 -0.851775 -0.262424 -1.985328 -4.346534 1.530556 -1.975490 -4.324041 1.523105 -0.000003 0.000008 0.000003 0.151446 0.067533 -1.124888 -1.581930 -3.280128 1.215960 -1.563956 -3.241828 1.202357 -0.000001 -0.000004 -0.000009 2.053604 1.866703 -2.468709 -1.692140 -3.681104 1.468138 -1.692193 -3.681124 1.468119 0.000006 -0.000005 -0.000003 -0.000002 -0.000009 0.000005 14.510628 6.759249 -5.689857 7.893034 7.685932 -2.993013 -0.000006 0.000001 -0.000009 34.958097 -5.037331 -7.103079 -85.101186 -9.461510 5.946486 -36.897385 -2.203126 -10.373252 -1.140098 -0.150765 0.139387 -0.000000 -0.000000 0.000002 -30.520912 3.497298 -10.863900 41.435537 10.747099 7.281776 24.990660 1.784510 6.136683 -8.884777 0.241825 -0.725056 -0.000013 -0.000001 -0.000001 
-1.211065 94.674271 191.890121 -0.680242 3.587370 0.691664 -1.971460 -15.283226 -7.597491 -1.153174 -6.233568 -3.249697 -1.243809 -6.042070 -3.618187 0.780161 2.866732 2.677899 4.641768 19.588899 6.996759 -0.000002 0.000000 0.000000 -0.000002 0.000000 0.000000 0.000003 0.000000 0.000000 -0.031842 -5.984546 1.257110 -34.151352 5.727406 0.529834 -10.696489 -2.061086 -5.382102 3.496289 7.694535 -7.935633 -0.000004 -0.000008 -0.000006 15.049480 12.367280 -3.642317 3.432435 9.031252 4.897739 0.000019 0.000007 0.000023 -7.331394 6.805621 0.580339 -0.258695 0.268566 0.171338 -0.258670 0.268587 0.171344 -0.000005 0.000004 -0.000002 -3.156976 3.780299 1.821656 0.092633 -0.107315 -0.076799 0.065545 -0.075887 -0.054342 0.000004 -0.000001 -0.000000 -2.211747 2.764126 0.903553 0.268752 -0.337382 -0.236898 0.226103 -0.283659 -0.199344 0.000001 0.000002 -0.000005 -7.557754 5.879942 -2.120867 0.274751 -0.263791 -0.241109 0.233580 -0.224120 -0.205008 0.000004 -0.000004 0.000001 -0.122796 -0.774255 -6.383511 40.447325 4.692457 -3.723414 -9.674756 4.719904 5.271149 10.096342 -3.321130 -14.269297 -2.576716 -4.295418 -0.229264 -0.265013 -0.510233 0.185452 -0.231295 -0.445098 0.161934 0.000003 0.000005 0.000005 -0.642781 -0.995911 -0.354606 -1.937661 -4.238697 1.494533 -1.925371 -4.210793 1.485248 -0.000000 -0.000002 -0.000002 0.501703 0.624361 -1.121507 -1.573432 -3.262040 1.209544 -1.559083 -3.231495 1.198664 0.000007 -0.000003 -0.000003 2.426474 1.880743 -3.173064 -1.855470 -4.049204 1.608356 -1.855492 -4.049213 1.608337 0.000001 -0.000003 0.000001 0.000008 0.000001 0.000012 18.451667 6.177479 -5.881136 8.184047 7.576106 -3.001250 0.000001 0.000003 0.000009 44.602208 -1.447195 -6.886516 -90.723005 -10.763008 4.339338 -16.027833 1.667817 -9.747667 -6.723574 -2.453271 0.913185 0.000003 -0.000002 0.000002 -28.896348 6.053978 -6.470884 19.349041 4.224638 4.292227 24.392386 1.519019 9.454224 -9.222361 0.253210 -0.751811 0.000000 -0.000001 -0.000000 
-0.781222 97.190521 206.582886 -0.873045 1.802740 -1.312974 -2.480217 -19.469575 -6.446397 -1.415002 -7.596112 -3.543335 -1.586767 -7.385215 -4.029242 0.299033 4.469498 2.245833 6.525055 26.399907 7.492982 -0.000004 0.000000 0.000000 -0.000004 0.000001 0.000000 0.000001 0.000000 0.000000 -0.135425 -5.095547 3.998984 -30.564431 -0.557367 1.460106 -20.108946 -3.006393 -10.298102 4.717855 16.053943 -6.971183 -0.000008 0.000000 -0.000002 13.961527 12.384513 -7.177227 4.903990 10.183955 5.084351 0.000002 0.000001 0.000011 -7.512901 6.968463 0.692234 -0.615701 0.636571 0.408912 -0.615686 0.636596 0.408930 -0.000005 0.000005 0.000002 -3.388151 3.986670 2.105924 -0.081437 0.094087 0.067561 -0.105222 0.121539 0.087311 -0.000004 0.000008 0.000003 -2.452079 3.167598 0.661491 0.165485 -0.207389 -0.145902 0.100828 -0.126283 -0.088940 0.000004 0.000001 -0.000007 -8.402183 6.648921 -1.294109 0.237806 -0.228197 -0.208699 0.199762 -0.191567 -0.175335 0.000005 -0.000001 0.000002 -0.238678 0.765557 -9.524221 49.387196 7.943957 -8.156313 -14.276059 6.569712 7.956245 8.489851 -7.900762 -14.304533 -3.315758 -5.721122 -0.588474 0.310046 0.591854 -0.218497 0.356699 0.680427 -0.251494 0.000003 -0.000002 0.000001 -0.734973 -1.139922 -0.447034 -1.889918 -4.130892 1.458420 -1.875206 -4.097591 1.447304 -0.000000 -0.000001 0.000006 0.851996 1.181203 -1.121538 -1.564929 -3.243940 1.203121 -1.554219 -3.221162 1.194961 0.000008 0.000001 -0.000014 2.799491 1.890203 -3.877493 -2.017964 -4.417698 1.747598 -2.017980 -4.417705 1.747566 0.000007 -0.000012 -0.000001 0.000007 -0.000002 0.000015 22.386563 5.584018 -6.031603 8.474958 7.466240 -3.008922 0.000006 -0.000007 -0.000008 54.236333 2.128481 -7.274404 -96.403892 -11.902371 2.602825 4.888724 5.507400 -10.544990 -12.289890 -4.820025 1.460563 -0.000003 0.000001 0.000004 -27.464968 8.726522 -2.126745 -2.966969 -0.695667 -0.918462 23.810540 1.219379 12.768426 -9.559925 0.264751 -0.778499 0.000000 0.000000 0.000000 
-0.842045 98.596138 220.781296 -1.743571 1.775894 2.323226 -4.833205 -21.988382 -11.951059 -1.468685 -7.897613 -3.842536 -1.632616 -7.625732 -4.367981 0.933739 4.435393 3.150933 8.737043 30.333000 7.223662 -0.000002 -0.000000 -0.000000 -0.000002 -0.000001 -0.000000 0.000002 -0.000000 -0.000000 -0.229421 -4.475896 5.812011 -26.122796 -8.541058 5.328885 -25.809284 -3.181657 -13.312720 3.000029 17.243108 -7.561261 -0.000011 0.000003 0.000002 14.110964 11.992722 -6.069395 4.849969 10.014210 5.001030 0.000002 0.000003 0.000000 -6.803628 6.335289 0.353584 -0.646827 0.668530 0.429716 -0.646817 0.668533 0.429694 -0.000003 0.000008 0.000001 -2.841442 3.318534 1.900218 -0.054388 0.062842 0.045100 -0.069222 0.079980 0.057432 0.000002 0.000003 -0.000000 -2.045565 2.716201 0.369449 0.270937 -0.340117 -0.238807 0.209479 -0.262744 -0.184685 0.000002 -0.000001 -0.000004 -8.119810 6.295865 -0.910477 0.382467 -0.367804 -0.335549 0.367320 -0.353139 -0.322284 0.000003 -0.000009 0.000008 -0.279260 1.914105 -12.146997 53.466198 9.080199 -9.232229 -16.150455 7.250088 9.076830 6.601597 -10.153355 -15.211016 -4.905297 -8.492193 -0.170916 0.516280 0.982477 -0.364693 0.569476 1.082815 -0.402524 0.000000 0.000002 -0.000000 -2.318661 -3.618109 0.322570 -2.083485 -4.569019 1.604571 -2.066683 -4.530729 1.591915 -0.000004 0.000000 -0.000004 -1.232285 -2.027856 -0.133746 -1.651706 -3.428762 1.268754 -1.636225 -3.395689 1.256997 0.000001 0.000000 -0.000003 0.623673 -1.244613 -2.361621 -2.114412 -4.637504 1.830090 -2.114433 -4.637478 1.830070 0.000006 -0.000007 -0.000001 -0.000002 -0.000009 0.000001 22.143533 5.135419 -6.304682 8.557398 7.433826 -3.015346 -0.000000 0.000006 -0.000009 56.648360 1.473293 -10.204776 -88.681373 -10.834995 -0.703110 6.710911 5.316962 -1.805984 1.277650 0.165559 -0.159675 -0.000001 0.000001 0.000003 -19.000299 10.201546 -4.510777 -23.252459 -1.362144 -4.581644 19.970932 -0.014358 16.503612 -10.070317 0.282512 -0.818712 0.000002 -0.000001 0.000001 
-1.327108 99.162987 234.944244 -3.239713 0.526747 8.680987 -7.657839 -20.153726 -20.267482 -1.459205 -8.039035 -4.307137 -1.564563 -7.699141 -4.870482 2.284301 3.543540 4.822114 9.055110 31.457983 6.682436 -0.000002 -0.000000 0.000000 -0.000002 -0.000000 0.000001 -0.000001 0.000000 0.000000 -0.281304 -4.452357 7.069355 -20.203505 -10.368225 8.117778 -30.121848 -3.115041 -15.595748 5.151134 15.569331 -7.558683 -0.000001 0.000001 -0.000000 14.101895 10.994515 -4.059172 4.404883 9.511903 4.846026 0.000006 0.000010 0.000001 -5.665481 5.293459 -0.158409 -0.578154 0.598026 0.383874 -0.578139 0.598022 0.383863 -0.000000 0.000007 0.000002 -1.912372 2.167144 1.531677 0.014746 -0.017033 -0.012211 0.012551 -0.014530 -0.010401 0.000004 0.000003 0.000001 -1.279511 1.845090 -0.162009 0.396946 -0.499323 -0.349751 0.341727 -0.429492 -0.301186 -0.000001 -0.000007 0.000000 -6.760509 5.207513 -1.140098 0.453218 -0.436295 -0.397544 0.443561 -0.426977 -0.389129 0.000005 -0.000009 0.000005 -0.364544 0.956483 -13.589356 54.241076 10.633904 -8.842325 -14.328545 6.589312 7.987455 3.403710 -8.321872 -15.850076 -4.526566 -7.755770 -0.055070 0.531578 1.011358 -0.375585 0.579954 1.102544 -0.409972 0.000004 0.000002 0.000008 -2.058137 -3.205071 0.179651 -1.735224 -3.782719 1.341169 -1.718356 -3.744747 1.328367 -0.000000 0.000004 0.000002 -1.160528 -1.927249 -0.246521 -1.303999 -2.691293 1.005055 -1.287219 -2.655929 0.992259 0.000000 -0.000008 -0.000001 0.643748 -0.832102 -2.037168 -1.680465 -3.654861 1.458102 -1.680503 -3.654868 1.458069 0.000002 -0.000003 0.000002 -0.000001 -0.000004 0.000004 17.427735 7.801366 -6.955509 8.442699 7.477290 -3.009210 -0.000011 -0.000002 0.000005 56.772601 -0.481605 -15.590774 -74.719640 -9.923467 8.338317 6.616574 6.688648 0.095963 0.085125 0.011134 -0.010525 -0.000002 -0.000002 -0.000000 -13.616815 8.229068 -8.730792 -32.763967 4.533052 -3.502272 13.431856 -2.307042 20.381078 -10.878491 0.311343 -0.882070 0.000002 0.000001 -0.000001 
